<svg width="18" height="12" viewBox="0 0 18 12" fill="none" xmlns="http://www.w3.org/2000/svg">
<path d="M15.115 11.594C14.8498 11.594 14.5954 11.4886 14.4079 11.3011C14.2203 11.1136 14.115 10.8592 14.115 10.594V1.927C14.115 1.66178 14.2203 1.40743 14.4079 1.21989C14.5954 1.03236 14.8498 0.927 15.115 0.927H16.115C16.3802 0.927 16.6346 1.03236 16.8221 1.21989C17.0096 1.40743 17.115 1.66178 17.115 1.927V10.594C17.115 10.8592 17.0096 11.1136 16.8221 11.3011C16.6346 11.4886 16.3802 11.594 16.115 11.594H15.115ZM10.448 11.594C10.1828 11.594 9.92842 11.4886 9.74088 11.3011C9.55335 11.1136 9.44799 10.8592 9.44799 10.594V4.261C9.44799 3.99578 9.55335 3.74143 9.74088 3.55389C9.92842 3.36636 10.1828 3.261 10.448 3.261H11.448C11.7132 3.261 11.9676 3.36636 12.1551 3.55389C12.3426 3.74143 12.448 3.99578 12.448 4.261V10.594C12.448 10.8592 12.3426 11.1136 12.1551 11.3011C11.9676 11.4886 11.7132 11.594 11.448 11.594H10.448ZM5.78099 11.594C5.51577 11.594 5.26142 11.4886 5.07388 11.3011C4.88635 11.1136 4.78099 10.8592 4.78099 10.594V6.594C4.78099 6.32878 4.88635 6.07443 5.07388 5.88689C5.26142 5.69936 5.51577 5.594 5.78099 5.594H6.78099C7.04621 5.594 7.30056 5.69936 7.4881 5.88689C7.67563 6.07443 7.78099 6.32878 7.78099 6.594V10.594C7.78099 10.8592 7.67563 11.1136 7.4881 11.3011C7.30056 11.4886 7.04621 11.594 6.78099 11.594H5.78099ZM1.11499 11.594C0.849774 11.594 0.59542 11.4886 0.407883 11.3011C0.220347 11.1136 0.11499 10.8592 0.11499 10.594V8.594C0.11499 8.32878 0.220347 8.07443 0.407883 7.88689C0.59542 7.69936 0.849774 7.594 1.11499 7.594H2.11499C2.38021 7.594 2.63456 7.69936 2.8221 7.88689C3.00963 8.07443 3.11499 8.32878 3.11499 8.594V10.594C3.11499 10.8592 3.00963 11.1136 2.8221 11.3011C2.63456 11.4886 2.38021 11.594 2.11499 11.594H1.11499Z" fill="black"/>
</svg>
