<svg width="18" height="12" viewBox="0 0 18 12" fill="none" xmlns="http://www.w3.org/2000/svg">
<path d="M15.1152 11.594C14.85 11.594 14.5957 11.4886 14.4081 11.3011C14.2206 11.1136 14.1152 10.8592 14.1152 10.594V1.927C14.1152 1.66178 14.2206 1.40743 14.4081 1.21989C14.5957 1.03236 14.85 0.927 15.1152 0.927H16.1152C16.3805 0.927 16.6348 1.03236 16.8223 1.21989C17.0099 1.40743 17.1152 1.66178 17.1152 1.927V10.594C17.1152 10.8592 17.0099 11.1136 16.8223 11.3011C16.6348 11.4886 16.3805 11.594 16.1152 11.594H15.1152ZM10.4482 11.594C10.183 11.594 9.92866 11.4886 9.74113 11.3011C9.55359 11.1136 9.44823 10.8592 9.44823 10.594V4.261C9.44823 3.99578 9.55359 3.74143 9.74113 3.55389C9.92866 3.36636 10.183 3.261 10.4482 3.261H11.4482C11.7135 3.261 11.9678 3.36636 12.1553 3.55389C12.3429 3.74143 12.4482 3.99578 12.4482 4.261V10.594C12.4482 10.8592 12.3429 11.1136 12.1553 11.3011C11.9678 11.4886 11.7135 11.594 11.4482 11.594H10.4482ZM5.78123 11.594C5.51602 11.594 5.26166 11.4886 5.07413 11.3011C4.88659 11.1136 4.78123 10.8592 4.78123 10.594V6.594C4.78123 6.32878 4.88659 6.07443 5.07413 5.88689C5.26166 5.69936 5.51602 5.594 5.78123 5.594H6.78123C7.04645 5.594 7.30081 5.69936 7.48834 5.88689C7.67588 6.07443 7.78123 6.32878 7.78123 6.594V10.594C7.78123 10.8592 7.67588 11.1136 7.48834 11.3011C7.30081 11.4886 7.04645 11.594 6.78123 11.594H5.78123ZM1.11523 11.594C0.850018 11.594 0.595664 11.4886 0.408128 11.3011C0.220591 11.1136 0.115234 10.8592 0.115234 10.594V8.594C0.115234 8.32878 0.220591 8.07443 0.408128 7.88689C0.595664 7.69936 0.850018 7.594 1.11523 7.594H2.11523C2.38045 7.594 2.6348 7.69936 2.82234 7.88689C3.00988 8.07443 3.11523 8.32878 3.11523 8.594V10.594C3.11523 10.8592 3.00988 11.1136 2.82234 11.3011C2.6348 11.4886 2.38045 11.594 2.11523 11.594H1.11523Z" fill="black"/>
</svg>
