<svg width="27" height="21" viewBox="0 0 27 21" fill="none" xmlns="http://www.w3.org/2000/svg">
<path d="M20.5247 0.78833C20.6445 0.788836 20.7518 0.789641 20.843 0.79126C21.1212 0.791262 21.2478 0.792139 21.3899 0.798096C21.8204 0.803337 22.251 0.840721 22.6887 0.9104C23.1449 0.991244 23.5876 1.13738 24.0061 1.34692C24.4274 1.56148 24.8128 1.84256 25.1438 2.17603C25.4757 2.50778 25.7542 2.88968 25.9719 3.3147C26.1792 3.73119 26.3259 4.1763 26.4085 4.64575C26.4761 5.06958 26.5121 5.49826 26.5169 5.90747C26.5203 5.99374 26.523 6.08115 26.5247 6.19653C26.5253 6.24231 26.5251 6.24336 26.5257 6.28833C26.5268 6.3764 26.5275 6.41673 26.5286 6.47876V14.4524C26.5276 14.501 26.5268 14.5414 26.5257 14.6311C26.5232 14.82 26.5216 14.906 26.5178 14.9954C26.5132 15.4302 26.4752 15.8648 26.4036 16.2971C26.3247 16.7597 26.1776 17.2089 25.9641 17.636C25.7479 18.0566 25.4676 18.4419 25.1341 18.7766C24.7987 19.1135 24.4113 19.3944 23.9876 19.6096C23.5669 19.8233 23.1161 19.9727 22.6477 20.052C22.2203 20.1223 21.7874 20.1615 21.3557 20.1692C21.2766 20.1707 21.214 20.1717 21.0764 20.1731C20.943 20.1744 20.8831 20.1745 20.7962 20.176H12.3264C12.2549 20.1746 12.1957 20.1744 12.0637 20.1731C11.9272 20.1717 11.865 20.1707 11.7913 20.1692C11.3615 20.163 10.9321 20.1247 10.4993 20.054C10.041 19.9734 9.59617 19.8269 9.16921 19.6145C8.75253 19.3988 8.37066 19.1199 8.03932 18.7883C8.02353 18.7725 7.99979 18.747 7.95925 18.7043C7.95143 18.6962 7.92538 18.6702 7.90847 18.6536C7.74957 18.5002 7.6786 18.4305 7.59108 18.343C7.59108 18.343 4.78728 15.5428 4.73659 15.4934C4.67017 15.4309 4.60333 15.3644 4.5403 15.2981C4.48106 15.2416 4.42941 15.1901 4.32546 15.0862L2.09499 12.8528L1.88307 12.6418C1.82561 12.5844 1.78321 12.5394 1.71218 12.4631C1.52344 12.2777 1.34445 12.081 1.17702 11.8762C1.0211 11.7101 0.894717 11.5169 0.805926 11.3069L0.784442 11.2493C0.622912 10.7507 0.623662 10.2136 0.804949 9.66138C0.893038 9.44899 1.01917 9.25408 1.17702 9.08716C1.34435 8.88074 1.52332 8.68553 1.69264 8.52173C1.7837 8.42502 1.82544 8.38013 1.88307 8.32251C1.98624 8.21939 2.03113 8.17452 2.09499 8.10767L4.54128 5.66235C4.58546 5.61819 4.60734 5.59686 4.63405 5.57056C4.67074 5.53443 4.70391 5.50217 4.72097 5.48657C4.74359 5.46396 4.76603 5.44305 4.78737 5.42603L7.22487 2.98755L7.59108 2.62134C7.67881 2.53364 7.74936 2.46435 7.90847 2.31079C7.90982 2.30945 7.95186 2.26783 7.9612 2.25806C8.00043 2.21677 8.0238 2.19154 8.03932 2.17603C8.3711 1.84398 8.75269 1.56507 9.17995 1.34399C9.59654 1.13687 10.041 0.990863 10.51 0.908447C10.9345 0.840457 11.3644 0.803439 11.7737 0.799072C11.9356 0.792612 12.0622 0.791162 12.3284 0.79126C12.5129 0.788189 12.6603 0.787354 12.9837 0.787354H20.1995C20.3613 0.787355 20.4343 0.787951 20.5247 0.78833ZM12.3411 2.22778C12.0815 2.22778 11.967 2.22863 11.8098 2.23462C11.4508 2.23872 11.0921 2.26948 10.7483 2.32446C10.4259 2.38116 10.1131 2.48383 9.83034 2.62427C9.54476 2.77211 9.28351 2.96388 9.05593 3.19165C9.05389 3.1937 9.04318 3.20413 8.99831 3.25122C8.94446 3.30758 8.91958 3.33304 8.89186 3.35767C8.74894 3.49564 8.68394 3.55976 8.60671 3.63696L8.2405 4.0022L5.76198 6.48364C5.73573 6.50988 5.70891 6.53254 5.64186 6.59302L5.34206 6.89282L3.12429 9.10962C3.06179 9.17537 3.01163 9.22622 2.89968 9.33813C2.85559 9.3822 2.81945 9.41979 2.71608 9.52856C2.55985 9.68058 2.41305 9.84196 2.27663 10.012L2.2278 10.0676C2.19295 10.103 2.16339 10.1432 2.14186 10.1877C2.08627 10.379 2.08669 10.5824 2.14186 10.7737C2.16467 10.82 2.19465 10.8636 2.23073 10.9006L2.27468 10.9495C2.41332 11.1205 2.56193 11.284 2.73854 11.4583C2.81953 11.5443 2.85566 11.5822 2.89968 11.6262L3.11159 11.8381L5.34206 14.0706C5.44508 14.1735 5.49047 14.2186 5.57253 14.2981C5.61217 14.3402 5.65412 14.3836 5.70534 14.4329C5.71619 14.4425 5.73243 14.4574 5.75807 14.4807L8.60671 17.3274C8.68379 17.4044 8.74909 17.4689 8.89186 17.6067C8.91943 17.6312 8.94482 17.6561 9.00026 17.7141C9.04231 17.7583 9.05331 17.7701 9.05593 17.7727C9.28311 18 9.54454 18.1917 9.8196 18.3342C10.1127 18.4799 10.4258 18.5827 10.7395 18.6379C11.0941 18.6958 11.4534 18.7274 11.8167 18.7327C11.8879 18.7341 11.9467 18.7353 12.0784 18.7366C12.2151 18.7379 12.2775 18.7391 12.3411 18.7405H20.7815C20.8607 18.7389 20.9237 18.7379 21.0618 18.7366C21.1952 18.7353 21.2548 18.7341 21.3294 18.7327C21.6927 18.7262 22.056 18.6935 22.4114 18.635C22.7334 18.5805 23.0459 18.4773 23.3372 18.3293C23.6249 18.1832 23.8875 17.992 24.1155 17.7629C24.3449 17.5327 24.538 17.2683 24.6829 16.9866C24.8295 16.6931 24.932 16.3789 24.9866 16.0588C25.0456 15.7025 25.077 15.3418 25.0813 14.9602C25.085 14.8669 25.0868 14.7891 25.0891 14.6125C25.0903 14.5197 25.0912 14.4775 25.0921 14.4387V6.49341C25.091 6.44142 25.0903 6.39906 25.0891 6.30786C25.0885 6.26289 25.0888 6.26196 25.0882 6.21802C25.0866 6.11365 25.0847 6.03733 25.0813 5.94556C25.0769 5.58619 25.0462 5.22665 24.9915 4.88306C24.9347 4.56079 24.8317 4.24767 24.6897 3.96216C24.544 3.67785 24.3542 3.41766 24.1262 3.1897C23.9008 2.96259 23.6396 2.77226 23.3587 2.62915C23.0683 2.48377 22.7578 2.381 22.4505 2.32642C22.0941 2.26978 21.7336 2.23954 21.3528 2.23462C21.216 2.22915 21.1018 2.22788 20.8303 2.22778C20.7337 2.22617 20.6321 2.22533 20.5178 2.22485C20.4303 2.22449 20.3591 2.22388 20.1995 2.22388H12.9837C12.6684 2.22388 12.5267 2.22479 12.3411 2.22778ZM19.2005 6.65454C19.3843 6.46993 19.6617 6.4137 19.9026 6.51294C20.1436 6.61241 20.301 6.848 20.301 7.10864C20.301 7.28246 20.2297 7.44341 20.1116 7.56177L20.1204 7.57056L17.2151 10.4758L20.0676 13.3225C20.0865 13.3373 20.1068 13.3512 20.1243 13.3684C20.3089 13.5523 20.3644 13.8297 20.2649 14.0706C20.1654 14.3114 19.9299 14.468 19.6692 14.468C19.4953 14.4679 19.3335 14.3977 19.2151 14.2795L19.2083 14.2874L16.304 11.3879L13.4036 14.2913L13.3928 14.2805C13.3347 14.3375 13.2669 14.3859 13.1887 14.4182C12.9468 14.518 12.6683 14.462 12.4837 14.2766C12.2327 14.0244 12.2326 13.6166 12.4837 13.3645C12.5193 13.3287 12.5592 13.2987 12.6008 13.2727L15.3938 10.4788L12.4837 7.57349L12.4934 7.56274C12.4367 7.50474 12.3889 7.43657 12.3567 7.35864C12.257 7.11693 12.313 6.83909 12.4983 6.65454C12.7506 6.40348 13.1582 6.40348 13.4104 6.65454C13.4448 6.68873 13.473 6.72706 13.4983 6.76685L16.304 9.56665L19.135 6.73462C19.1548 6.70691 19.1758 6.67954 19.2005 6.65454Z" fill="black"/>
</svg>
