<svg width="18" height="30" viewBox="0 0 18 30" fill="none" xmlns="http://www.w3.org/2000/svg">
<path d="M16.8091 12.7434C17.3342 12.7436 17.7603 13.1696 17.7603 13.6946C17.7602 13.7138 17.7585 13.7333 17.7573 13.7522V16.1096H17.7456L17.7358 16.5168C17.5426 20.704 14.3466 24.1728 10.144 24.6741V27.5647H13.728V27.5774C13.7405 27.5769 13.7536 27.5764 13.7661 27.5764C14.2911 27.5768 14.7173 28.0027 14.7173 28.5276C14.7169 29.0522 14.2909 29.4774 13.7661 29.4778C13.7536 29.4778 13.7405 29.4763 13.728 29.4758V29.4778H4.66944V29.4758C4.65819 29.4762 4.6466 29.4778 4.63526 29.4778C4.11023 29.4778 3.6845 29.0524 3.68409 28.5276C3.68409 28.0025 4.10998 27.5764 4.63526 27.5764C4.64659 27.5764 4.65821 27.577 4.66944 27.5774V27.5647H8.26124V24.6741C3.91371 24.169 0.635259 20.4851 0.640142 16.1096C0.640142 16.068 0.647139 16.0293 0.647955 15.9915V13.8098C0.643386 13.7722 0.640186 13.7334 0.640142 13.6946C0.640142 13.1695 1.06617 12.7436 1.59131 12.7434C2.11644 12.7436 2.54249 13.1696 2.54249 13.6946C2.54245 13.7204 2.54063 13.7464 2.53858 13.7717V16.4055H2.5337V16.4133C2.53374 16.4473 2.53817 16.4819 2.53858 16.5159V16.8733H2.55616C2.83909 20.2547 5.60736 22.8915 8.99952 23.009H9.38331C12.7764 22.8933 15.5468 20.2557 15.8286 16.8733H15.8511V13.7053L15.8579 13.7043C15.8579 13.7013 15.8579 13.6977 15.8579 13.6946C15.8579 13.1695 16.2839 12.7436 16.8091 12.7434ZM9.19678 0.955322C11.4643 0.955343 13.4539 2.46613 14.063 4.64966C14.2059 5.14951 14.2956 5.66312 14.3296 6.18188C14.3638 6.75619 14.3296 9.12993 14.3296 9.70044V14.5081H14.3286C14.3286 15.0822 14.3288 15.6868 14.2983 16.261C14.275 16.7787 14.1954 17.2924 14.062 17.7932C13.7643 18.8447 13.1299 19.7703 12.2554 20.426C10.4617 21.8408 7.93085 21.8408 6.13721 20.426C5.26048 19.7723 4.62503 18.846 4.3296 17.7932C4.19563 17.2925 4.11672 16.7788 4.09424 16.261C4.06115 15.6868 4.06397 15.0822 4.06397 14.5081V6.18188C4.07901 5.66103 4.16906 5.14509 4.33057 4.64966C4.93963 2.46611 6.92929 0.955322 9.19678 0.955322ZM11.1177 3.51587C9.98859 2.63855 8.40791 2.63855 7.27881 3.51587C6.72567 3.94224 6.32733 4.53809 6.14502 5.21216C6.05825 5.53303 6.00394 5.86194 5.98194 6.1936C5.95152 6.59766 5.97413 10.3478 5.97413 15.4055C5.97413 15.7704 5.97757 15.8921 5.99659 16.2571C6.01159 16.5885 6.06138 16.9175 6.14502 17.2385C6.32735 17.9126 6.72565 18.5085 7.27881 18.9348C8.40791 19.8121 9.98859 19.8121 11.1177 18.9348C11.6687 18.5072 12.0653 17.9117 12.2476 17.2385C12.333 16.9179 12.3829 16.5886 12.396 16.2571C12.4188 15.8921 12.4263 15.7704 12.4263 15.4055C12.4263 10.3326 12.4568 6.62813 12.4302 6.1936C12.4055 5.86082 12.3442 5.53156 12.2476 5.21216C12.0654 4.539 11.6687 3.94349 11.1177 3.51587Z" fill="#50555C"/>
</svg>
