<svg width="32" height="32" viewBox="0 0 32 32" fill="none" xmlns="http://www.w3.org/2000/svg">
<path fill-rule="evenodd" clip-rule="evenodd" d="M15.9412 0.814453C24.4508 0.814453 31.3492 7.71019 31.3492 16.2165C31.3492 24.7228 24.4508 31.6186 15.9412 31.6186C7.4316 31.6186 0.533203 24.7228 0.533203 16.2165C0.533203 7.71019 7.4316 0.814453 15.9412 0.814453ZM15.9412 2.6088C23.4592 2.60965 29.5532 8.70242 29.5526 16.2176C29.5521 23.7327 23.4572 29.8245 15.9391 29.8242C8.42111 29.824 2.32669 23.7317 2.32669 16.2165C2.3268 12.6073 3.76126 9.14595 6.3145 6.59398C8.86774 4.04202 12.3306 2.6085 15.9412 2.6088V2.6088ZM11.0669 9.53588C10.5906 9.53021 10.132 9.71568 9.79368 10.0508C9.45535 10.3859 9.26557 10.8426 9.26684 11.3187C9.26684 12.3124 10.0727 13.118 11.0669 13.118C12.061 13.118 12.8669 12.3124 12.8669 11.3187C12.8682 10.8426 12.6784 10.3859 12.3401 10.0508C12.0018 9.71568 11.5431 9.53021 11.0669 9.53588V9.53588ZM26.2095 18.8695C25.389 23.3015 21.1098 27.0018 15.9393 27.0018C10.81 27.0018 6.5558 23.3554 5.68718 18.9735C5.51114 17.8799 6.40712 17.622 7.25109 17.826C10.0744 18.6421 13.0024 19.0391 15.9412 19.0043C18.8734 19.0383 21.7947 18.6426 24.6121 17.8299C25.4325 17.622 26.3112 17.8568 26.2095 18.8695V18.8695ZM23.4241 19.4856C23.344 19.5164 23.2627 19.5395 23.1807 19.5665C23.1722 19.5703 23.4434 19.4818 23.4353 19.4856C20.999 20.156 18.4807 20.4814 15.9539 20.4521C12.9386 20.4521 10.2418 20.1171 8.38589 19.451C7.04039 19.0505 7.29847 20.6331 8.24414 21.1182C10.6634 22.2192 13.2955 22.7739 15.9535 22.7431C19.1153 22.7431 21.9326 22.0077 23.7935 21.0566C24.6741 20.4906 24.8482 18.9735 23.4241 19.4856V19.4856ZM20.8255 9.53588C20.3493 9.53021 19.8906 9.71567 19.5522 10.0507C19.2138 10.3858 19.0239 10.8425 19.0251 11.3187C19.0156 11.9679 19.3566 12.5718 19.9175 12.8992C20.4784 13.2266 21.1723 13.2266 21.7331 12.8992C22.294 12.5718 22.6351 11.9679 22.6256 11.3187C22.6267 10.8426 22.4369 10.386 22.0986 10.0509C21.7603 9.71582 21.3018 9.53031 20.8255 9.53588V9.53588Z" fill="#50555C"/>
</svg>
