<svg width="101" height="50" viewBox="0 0 101 50" fill="none" xmlns="http://www.w3.org/2000/svg">
<g filter="url(#filter0_d_2113_238)">
<path fill-rule="evenodd" clip-rule="evenodd" d="M0.138672 8.31191C0.138672 5.73566 0.138672 4.44754 0.640042 3.46355C1.08106 2.598 1.78477 1.89429 2.65032 1.45327C3.63431 0.951904 4.92243 0.951904 7.49867 0.951904H92.7787C95.3549 0.951904 96.643 0.951904 97.627 1.45327C98.4926 1.89429 99.1963 2.598 99.6373 3.46355C100.139 4.44754 100.139 5.73566 100.139 8.3119V41.5919C100.139 44.1681 100.139 45.4563 99.6373 46.4403C99.1963 47.3058 98.4926 48.0095 97.627 48.4505C96.643 48.9519 95.3549 48.9519 92.7787 48.9519H7.49867C4.92243 48.9519 3.63431 48.9519 2.65032 48.4505C1.78477 48.0095 1.08106 47.3058 0.640042 46.4403C0.138672 45.4563 0.138672 44.1681 0.138672 41.5919V8.31191Z" fill="#ADB3BC"/>
</g>
<defs>
<filter id="filter0_d_2113_238" x="0.138672" y="0.951904" width="100" height="49" filterUnits="userSpaceOnUse" color-interpolation-filters="sRGB">
<feFlood flood-opacity="0" result="BackgroundImageFix"/>
<feColorMatrix in="SourceAlpha" type="matrix" values="0 0 0 0 0 0 0 0 0 0 0 0 0 0 0 0 0 0 127 0" result="hardAlpha"/>
<feOffset dy="1"/>
<feColorMatrix type="matrix" values="0 0 0 0 0.537255 0 0 0 0 0.541176 0 0 0 0 0.552941 0 0 0 1 0"/>
<feBlend mode="normal" in2="BackgroundImageFix" result="effect1_dropShadow_2113_238"/>
<feBlend mode="normal" in="SourceGraphic" in2="effect1_dropShadow_2113_238" result="shape"/>
</filter>
</defs>
</svg>
