<svg width="209" height="50" viewBox="0 0 209 50" fill="none" xmlns="http://www.w3.org/2000/svg">
<g filter="url(#filter0_d_2113_241)">
<path fill-rule="evenodd" clip-rule="evenodd" d="M0.567871 8.31191C0.567871 5.73566 0.567871 4.44754 1.06924 3.46355C1.51026 2.598 2.21397 1.89429 3.07951 1.45327C4.06351 0.951904 5.35163 0.951904 7.92787 0.951904H201.208C203.784 0.951904 205.072 0.951904 206.056 1.45327C206.922 1.89429 207.625 2.598 208.067 3.46355C208.568 4.44754 208.568 5.73566 208.568 8.3119V41.5919C208.568 44.1681 208.568 45.4563 208.067 46.4403C207.625 47.3058 206.922 48.0095 206.056 48.4505C205.072 48.9519 203.784 48.9519 201.208 48.9519H7.92787C5.35163 48.9519 4.06351 48.9519 3.07951 48.4505C2.21397 48.0095 1.51026 47.3058 1.06924 46.4403C0.567871 45.4563 0.567871 44.1681 0.567871 41.5919V8.31191Z" fill="#FCFCFE"/>
</g>
<defs>
<filter id="filter0_d_2113_241" x="0.567871" y="0.951904" width="208" height="49" filterUnits="userSpaceOnUse" color-interpolation-filters="sRGB">
<feFlood flood-opacity="0" result="BackgroundImageFix"/>
<feColorMatrix in="SourceAlpha" type="matrix" values="0 0 0 0 0 0 0 0 0 0 0 0 0 0 0 0 0 0 127 0" result="hardAlpha"/>
<feOffset dy="1"/>
<feColorMatrix type="matrix" values="0 0 0 0 0.537255 0 0 0 0 0.541176 0 0 0 0 0.552941 0 0 0 1 0"/>
<feBlend mode="normal" in2="BackgroundImageFix" result="effect1_dropShadow_2113_241"/>
<feBlend mode="normal" in="SourceGraphic" in2="effect1_dropShadow_2113_241" result="shape"/>
</filter>
</defs>
</svg>
