<svg width="100" height="50" viewBox="0 0 100 50" fill="none" xmlns="http://www.w3.org/2000/svg">
<g filter="url(#filter0_d_2113_244)">
<path fill-rule="evenodd" clip-rule="evenodd" d="M0.423828 8.31191C0.423828 5.73566 0.423828 4.44754 0.925198 3.46355C1.36622 2.598 2.06993 1.89429 2.93547 1.45327C3.91947 0.951904 5.20759 0.951904 7.78383 0.951904H92.0638C94.6401 0.951904 95.9282 0.951904 96.9122 1.45327C97.7777 1.89429 98.4814 2.598 98.9225 3.46355C99.4238 4.44754 99.4238 5.73566 99.4238 8.3119V41.5919C99.4238 44.1681 99.4238 45.4563 98.9225 46.4403C98.4814 47.3058 97.7777 48.0095 96.9122 48.4505C95.9282 48.9519 94.6401 48.9519 92.0638 48.9519H7.78383C5.20759 48.9519 3.91947 48.9519 2.93547 48.4505C2.06993 48.0095 1.36622 47.3058 0.925198 46.4403C0.423828 45.4563 0.423828 44.1681 0.423828 41.5919V8.31191Z" fill="#ADB3BC"/>
</g>
<defs>
<filter id="filter0_d_2113_244" x="0.423828" y="0.951904" width="99" height="49" filterUnits="userSpaceOnUse" color-interpolation-filters="sRGB">
<feFlood flood-opacity="0" result="BackgroundImageFix"/>
<feColorMatrix in="SourceAlpha" type="matrix" values="0 0 0 0 0 0 0 0 0 0 0 0 0 0 0 0 0 0 127 0" result="hardAlpha"/>
<feOffset dy="1"/>
<feColorMatrix type="matrix" values="0 0 0 0 0.537255 0 0 0 0 0.541176 0 0 0 0 0.552941 0 0 0 1 0"/>
<feBlend mode="normal" in2="BackgroundImageFix" result="effect1_dropShadow_2113_244"/>
<feBlend mode="normal" in="SourceGraphic" in2="effect1_dropShadow_2113_244" result="shape"/>
</filter>
</defs>
</svg>
