<svg width="23" height="20" viewBox="0 0 23 20" fill="none" xmlns="http://www.w3.org/2000/svg">
<path d="M21.4358 12.2012H16.6455V16.7295C16.6455 16.8207 16.6455 16.9044 16.6455 16.9918C16.6455 17.0679 16.6455 17.1401 16.6425 17.2162C16.6404 17.3792 16.6263 17.5419 16.6003 17.7028C16.572 17.8627 16.5207 18.0177 16.4481 18.1629C16.3738 18.3079 16.2767 18.4401 16.1606 18.5545C16.0439 18.6688 15.9107 18.7649 15.7654 18.8397C15.6182 18.9113 15.462 18.9624 15.301 18.9917C15.1395 19.0171 14.9764 19.031 14.813 19.0336C14.7369 19.0336 14.6631 19.0374 14.5885 19.0374H8.42636C8.35029 19.0374 8.27688 19.0336 8.20195 19.0336C8.03851 19.031 7.87544 19.017 7.71395 18.9917C7.55307 18.9624 7.39694 18.9112 7.24992 18.8397C7.10463 18.7649 6.97141 18.6688 6.85472 18.5545C6.7385 18.4402 6.64141 18.308 6.56717 18.1629C6.49458 18.0176 6.44333 17.8627 6.41503 17.7028C6.38886 17.5419 6.37463 17.3792 6.37243 17.2162C6.37243 17.1401 6.36939 17.0679 6.36939 16.9918C6.36939 16.9044 6.36939 16.8207 6.36939 16.7295V12.2012H1.50346C1.01128 12.2012 0.379885 11.1404 0.970962 10.551C1.47341 10.053 9.37041 2.18258 11.0231 0.543869C11.1445 0.394683 11.316 0.294692 11.5057 0.262512H11.5187C11.6828 0.271409 11.8352 0.350339 11.9371 0.479233C13.5897 2.11795 21.5137 10.053 22.0166 10.551C22.608 11.1404 22.1128 12.2012 21.4358 12.2012Z" fill="black"/>
</svg>
