<svg width="22" height="24" viewBox="0 0 22 24" fill="none" xmlns="http://www.w3.org/2000/svg">
<path d="M9.37793 2.68945C9.8674 1.10345 12.1423 1.10346 12.6318 2.68945L12.6748 2.85352L12.6758 2.85938L12.8486 3.61719C13.2809 5.37642 13.9131 7.05129 14.7754 8.07031H14.7764L14.9727 8.28906C15.85 9.2073 17.0351 9.72592 18.5078 10.1484L19.208 10.3379L19.2119 10.3389L19.3682 10.3857C20.41 10.7518 20.7315 11.8954 20.335 12.7432V13.3701L19.208 13.6602C17.4734 14.1058 15.7934 14.665 14.8691 15.6016L14.8701 15.6025C13.7004 16.7903 13.1947 18.6971 12.6758 21.1406L12.6748 21.1465C12.284 22.9512 9.72577 22.9512 9.33496 21.1465L9.33398 21.1406C9.13281 20.1951 8.91531 19.223 8.625 18.3252C8.33147 17.4176 7.99424 16.6885 7.60449 16.1846L7.40039 15.9395C6.34305 14.7545 4.74538 14.1625 2.79102 13.6592H2.78809C1.07068 13.2135 1.07068 10.7865 2.78809 10.3408H2.79004L3.48633 10.1543C5.08161 9.70883 6.45637 9.17393 7.30469 8.2373C8.35257 7.07799 8.84819 5.14332 9.33398 2.85938L9.33496 2.85352L9.37793 2.68945Z" fill="#22C55E" stroke="white" stroke-width="3"/>
</svg>
