<svg width="17" height="19" viewBox="0 0 17 19" fill="none" xmlns="http://www.w3.org/2000/svg">
<path d="M16.8253 9.71837C15.0297 10.178 12.8103 10.8458 11.4766 12.1915C9.8515 13.8306 9.25338 16.3291 8.7227 18.82C8.6718 19.06 8.34093 19.06 8.29002 18.82C7.86116 16.8242 7.31012 14.4273 6.15078 12.9457C4.67584 11.0603 2.40426 10.2897 0.174664 9.71837C-0.0582214 9.6587 -0.0582214 9.3413 0.174664 9.28163C2.12556 8.78268 4.36024 8.12123 5.75501 6.59138C7.20959 4.99551 7.79371 2.49442 8.29002 0.179964C8.34093 -0.059988 8.6718 -0.059988 8.7227 0.179964C9.18593 2.35477 9.97749 4.82538 11.2959 6.37555C12.7276 8.05902 14.751 8.75094 16.8253 9.28163C17.0582 9.3413 17.0582 9.6587 16.8253 9.71837Z" fill="#EF4444"/>
</svg>
