<svg width="9" height="10" viewBox="0 0 9 10" fill="none" xmlns="http://www.w3.org/2000/svg">
<path d="M8.90869 5.115C7.95876 5.35601 6.78385 5.70858 6.07696 6.41647C5.21731 7.27861 4.90066 8.59386 4.61874 9.90497C4.59096 10.0317 4.41737 10.0317 4.38959 9.90497C4.16322 8.85415 3.87019 7.594 3.25635 6.81311C2.47585 5.82151 1.27317 5.41523 0.0927012 5.115C-0.0309004 5.08332 -0.0309004 4.91668 0.0927012 4.885C1.12457 4.62195 2.30781 4.27489 3.04664 3.46922C3.81602 2.62911 4.12572 1.31387 4.3882 0.0950282C4.41598 -0.0316761 4.58957 -0.0316761 4.61735 0.0950282C4.86316 1.2395 5.28119 2.5396 5.97974 3.35491C6.73802 4.24046 7.80877 4.60543 8.9073 4.88362C9.0309 4.9153 9.0309 5.08194 8.9073 5.11362L8.90869 5.115Z" fill="#EF4444"/>
</svg>
