<svg width="38" height="42" viewBox="0 0 38 42" fill="none" xmlns="http://www.w3.org/2000/svg">
<path d="M17.1875 2.84082C17.7547 0.992265 20.4698 1.05475 20.8877 3.03027H20.8867C21.7524 7.11368 23.1832 11.4755 25.4092 14.1104L25.6348 14.3691C27.8405 16.8213 30.872 18.0091 34.3252 18.9434L35.0449 19.1328L35.0459 19.1338L35.2217 19.1865C36.9828 19.8022 36.924 22.381 35.0459 22.8662H35.0449C31.6163 23.7498 27.8481 24.9392 25.6719 27.1504V27.1514C22.972 29.8928 21.9032 34.165 20.8867 38.9658L20.8877 38.9668C20.4577 41.0107 17.5677 41.0107 17.1377 38.9668V38.9658C16.7352 37.0757 16.2881 35.0652 15.6816 33.1895C15.0711 31.3008 14.3304 29.6523 13.3945 28.4473V28.4463C10.9562 25.3091 7.13951 23.9428 2.95508 22.8662H2.9541C1.01556 22.3654 1.01552 19.6346 2.9541 19.1338L2.95508 19.1328L4.34961 18.7607C7.59447 17.8592 10.724 16.6848 12.7217 14.4805L12.9443 14.2256C15.2044 11.5419 16.2135 7.36655 17.1387 3.02832L17.1396 3.02539L17.1875 2.84082Z" fill="#EF4444" stroke="white" stroke-width="3"/>
</svg>
