<svg width="19" height="21" viewBox="0 0 19 21" fill="none" xmlns="http://www.w3.org/2000/svg">
<path d="M18.8048 10.7414C16.7979 11.2493 14.3174 11.9874 12.8268 13.4748C11.0105 15.2864 10.342 18.048 9.74891 20.8011C9.69201 21.0663 9.32221 21.0663 9.26532 20.8011C8.786 18.5952 8.17014 15.9459 6.87441 14.3084C5.22594 12.2246 2.68711 11.3728 0.195213 10.7414C-0.0650709 10.6754 -0.0650709 10.3246 0.195213 10.2586C2.37562 9.70718 4.87321 8.9761 6.43207 7.28521C8.05777 5.52135 8.71062 2.75699 9.26532 0.198907C9.32221 -0.0663025 9.69201 -0.0663025 9.74891 0.198907C10.2666 2.60264 11.1513 5.33332 12.6248 7.04666C14.2249 8.90734 16.4864 9.6721 18.8048 10.2586C19.0651 10.3246 19.0651 10.6754 18.8048 10.7414Z" fill="#EF4444"/>
</svg>
