<svg width="32" height="36" viewBox="0 0 32 36" fill="none" xmlns="http://www.w3.org/2000/svg">
<path d="M31.6709 18.4135C28.2921 19.2842 24.1124 20.5485 21.6028 23.0986C18.5436 26.2048 17.4188 30.939 16.4197 35.6582C16.3238 36.1139 15.7018 36.1139 15.6059 35.6582C14.8006 31.876 13.761 27.3365 11.5795 24.5276C8.80367 20.955 4.52806 19.4939 0.329139 18.4135C-0.109713 18.3002 -0.109713 17.699 0.329139 17.5856C3.99973 16.6401 8.20718 15.3865 10.8339 12.4878C13.5714 9.46497 14.6707 4.72646 15.6059 0.340948C15.7039 -0.114718 16.3238 -0.112579 16.4197 0.340948C17.2931 4.46119 18.7822 9.14193 21.2641 12.0792C23.9611 15.2688 27.7681 16.5802 31.6709 17.5856C32.1097 17.699 32.1097 18.3002 31.6709 18.4135Z" fill="#22C55E"/>
</svg>
