<svg width="16" height="12" viewBox="0 0 16 12" fill="none" xmlns="http://www.w3.org/2000/svg">
<path d="M7.94522 11.468L5.93922 9.446C5.90836 9.41614 5.88407 9.38018 5.86788 9.34041C5.8517 9.30063 5.84398 9.25792 5.84522 9.215C5.8456 9.17236 5.85466 9.13023 5.87186 9.09121C5.88905 9.05218 5.91401 9.01706 5.94522 8.988C6.56556 8.46375 7.35152 8.17612 8.16372 8.17612C8.97592 8.17612 9.76188 8.46375 10.3822 8.988C10.414 9.01683 10.4395 9.05183 10.4573 9.09088C10.475 9.12992 10.4846 9.17218 10.4855 9.21506C10.4863 9.25794 10.4784 9.30054 10.4622 9.34025C10.446 9.37997 10.4218 9.41595 10.3912 9.446L8.38922 11.468C8.36011 11.4974 8.32546 11.5208 8.28727 11.5367C8.24908 11.5527 8.20811 11.5609 8.16672 11.5609C8.12534 11.5609 8.08436 11.5527 8.04617 11.5367C8.00798 11.5208 7.97333 11.4974 7.94422 11.468H7.94522ZM11.4752 7.926C10.5692 7.10637 9.39098 6.65252 8.16922 6.65252C6.94746 6.65252 5.76926 7.10637 4.86322 7.926C4.80445 7.9822 4.72601 8.01315 4.6447 8.01221C4.56339 8.01128 4.48568 7.97854 4.42822 7.921L3.26822 6.751C3.23762 6.72102 3.21331 6.68523 3.19672 6.64574C3.18012 6.60625 3.17157 6.56384 3.17157 6.521C3.17157 6.47816 3.18012 6.43575 3.19672 6.39626C3.21331 6.35677 3.23762 6.32098 3.26822 6.291C4.59879 5.05499 6.34765 4.36804 8.16372 4.36804C9.97979 4.36804 11.7287 5.05499 13.0592 6.291C13.0898 6.32098 13.1141 6.35677 13.1307 6.39626C13.1473 6.43575 13.1559 6.47816 13.1559 6.521C13.1559 6.56384 13.1473 6.60625 13.1307 6.64574C13.1141 6.68523 13.0898 6.72102 13.0592 6.751L11.9092 7.921C11.8518 7.97854 11.7741 8.01128 11.6927 8.01221C11.6114 8.01315 11.533 7.9822 11.4742 7.926H11.4752ZM14.1442 5.226C12.5311 3.69398 10.3914 2.8398 8.16672 2.8398C5.94205 2.8398 3.80231 3.69398 2.18922 5.226C2.13148 5.28358 2.05327 5.31592 1.97172 5.31592C1.89018 5.31592 1.81196 5.28358 1.75422 5.226L0.594221 4.061C0.564196 4.031 0.540378 3.99538 0.524127 3.95618C0.507876 3.91697 0.499512 3.87494 0.499512 3.8325C0.499512 3.79006 0.507876 3.74803 0.524127 3.70883C0.540378 3.66962 0.564196 3.634 0.594221 3.604C2.63181 1.65318 5.34382 0.564234 8.16472 0.564234C10.9856 0.564234 13.6976 1.65318 15.7352 3.604C15.7652 3.634 15.7891 3.66962 15.8053 3.70883C15.8216 3.74803 15.8299 3.79006 15.8299 3.8325C15.8299 3.87494 15.8216 3.91697 15.8053 3.95618C15.7891 3.99538 15.7652 4.031 15.7352 4.061L14.5742 5.231C14.5165 5.28859 14.4383 5.32092 14.3567 5.32092C14.2752 5.32092 14.197 5.28859 14.1392 5.231L14.1442 5.226Z" fill="black"/>
</svg>
