<svg width="16" height="12" viewBox="0 0 16 12" fill="none" xmlns="http://www.w3.org/2000/svg">
<path d="M7.94498 11.468L5.93898 9.446C5.90812 9.41614 5.88382 9.38018 5.86764 9.34041C5.85145 9.30063 5.84373 9.25792 5.84498 9.215C5.84536 9.17236 5.85442 9.13023 5.87161 9.09121C5.8888 9.05218 5.91377 9.01706 5.94498 8.988C6.56532 8.46375 7.35128 8.17612 8.16348 8.17612C8.97568 8.17612 9.76163 8.46375 10.382 8.988C10.4137 9.01683 10.4393 9.05183 10.457 9.09088C10.4748 9.12992 10.4844 9.17218 10.4852 9.21506C10.4861 9.25794 10.4781 9.30054 10.4619 9.34025C10.4457 9.37997 10.4216 9.41595 10.391 9.446L8.38898 11.468C8.35987 11.4974 8.32522 11.5208 8.28703 11.5367C8.24883 11.5527 8.20786 11.5609 8.16648 11.5609C8.12509 11.5609 8.08412 11.5527 8.04593 11.5367C8.00774 11.5208 7.97308 11.4974 7.94398 11.468H7.94498ZM11.475 7.926C10.5689 7.10637 9.39074 6.65252 8.16898 6.65252C6.94722 6.65252 5.76901 7.10637 4.86298 7.926C4.80421 7.9822 4.72577 8.01315 4.64446 8.01221C4.56315 8.01128 4.48544 7.97854 4.42798 7.921L3.26798 6.751C3.23738 6.72102 3.21307 6.68523 3.19647 6.64574C3.17988 6.60625 3.17133 6.56384 3.17133 6.521C3.17133 6.47816 3.17988 6.43575 3.19647 6.39626C3.21307 6.35677 3.23738 6.32098 3.26798 6.291C4.59855 5.05499 6.3474 4.36804 8.16348 4.36804C9.97955 4.36804 11.7284 5.05499 13.059 6.291C13.0896 6.32098 13.1139 6.35677 13.1305 6.39626C13.1471 6.43575 13.1556 6.47816 13.1556 6.521C13.1556 6.56384 13.1471 6.60625 13.1305 6.64574C13.1139 6.68523 13.0896 6.72102 13.059 6.751L11.909 7.921C11.8515 7.97854 11.7738 8.01128 11.6925 8.01221C11.6112 8.01315 11.5327 7.9822 11.474 7.926H11.475ZM14.144 5.226C12.5309 3.69398 10.3911 2.8398 8.16648 2.8398C5.94181 2.8398 3.80206 3.69398 2.18898 5.226C2.13124 5.28359 2.05302 5.31592 1.97148 5.31592C1.88993 5.31592 1.81171 5.28359 1.75398 5.226L0.593977 4.061C0.563952 4.031 0.540134 3.99538 0.523883 3.95618C0.507632 3.91697 0.499268 3.87494 0.499268 3.8325C0.499268 3.79006 0.507632 3.74803 0.523883 3.70883C0.540134 3.66962 0.563952 3.634 0.593977 3.604C2.63157 1.65318 5.34358 0.564234 8.16448 0.564234C10.9854 0.564234 13.6974 1.65318 15.735 3.604C15.765 3.634 15.7888 3.66962 15.8051 3.70883C15.8213 3.74803 15.8297 3.79006 15.8297 3.8325C15.8297 3.87494 15.8213 3.91697 15.8051 3.95618C15.7888 3.99538 15.765 4.031 15.735 4.061L14.574 5.231C14.5162 5.28859 14.438 5.32092 14.3565 5.32092C14.2749 5.32092 14.1967 5.28859 14.139 5.231L14.144 5.226Z" fill="black"/>
</svg>
