<svg width="16" height="12" viewBox="0 0 16 12" fill="none" xmlns="http://www.w3.org/2000/svg">
<path d="M7.94501 11.468L5.93901 9.446C5.90815 9.41614 5.88385 9.38018 5.86767 9.34041C5.85148 9.30063 5.84376 9.25792 5.84501 9.215C5.84539 9.17236 5.85445 9.13023 5.87164 9.09121C5.88883 9.05218 5.9138 9.01706 5.94501 8.988C6.56535 8.46375 7.35131 8.17612 8.16351 8.17612C8.97571 8.17612 9.76167 8.46375 10.382 8.988C10.4138 9.01683 10.4393 9.05183 10.4571 9.09088C10.4748 9.12992 10.4844 9.17218 10.4852 9.21506C10.4861 9.25794 10.4782 9.30054 10.462 9.34025C10.4458 9.37997 10.4216 9.41595 10.391 9.446L8.38901 11.468C8.3599 11.4974 8.32525 11.5208 8.28706 11.5367C8.24886 11.5527 8.20789 11.5609 8.16651 11.5609C8.12512 11.5609 8.08415 11.5527 8.04596 11.5367C8.00777 11.5208 7.97311 11.4974 7.94401 11.468H7.94501ZM11.475 7.926C10.569 7.10637 9.39077 6.65252 8.16901 6.65252C6.94725 6.65252 5.76904 7.10637 4.86301 7.926C4.80424 7.9822 4.7258 8.01315 4.64449 8.01221C4.56318 8.01128 4.48547 7.97854 4.42801 7.921L3.26801 6.751C3.23741 6.72102 3.2131 6.68523 3.1965 6.64574C3.17991 6.60625 3.17136 6.56384 3.17136 6.521C3.17136 6.47816 3.17991 6.43575 3.1965 6.39626C3.2131 6.35677 3.23741 6.32098 3.26801 6.291C4.59858 5.05499 6.34743 4.36804 8.16351 4.36804C9.97958 4.36804 11.7284 5.05499 13.059 6.291C13.0896 6.32098 13.1139 6.35677 13.1305 6.39626C13.1471 6.43575 13.1557 6.47816 13.1557 6.521C13.1557 6.56384 13.1471 6.60625 13.1305 6.64574C13.1139 6.68523 13.0896 6.72102 13.059 6.751L11.909 7.921C11.8515 7.97854 11.7738 8.01128 11.6925 8.01221C11.6112 8.01315 11.5328 7.9822 11.474 7.926H11.475ZM14.144 5.226C12.5309 3.69398 10.3912 2.8398 8.16651 2.8398C5.94184 2.8398 3.8021 3.69398 2.18901 5.226C2.13127 5.28359 2.05305 5.31592 1.97151 5.31592C1.88996 5.31592 1.81174 5.28359 1.75401 5.226L0.594007 4.061C0.563983 4.031 0.540164 3.99538 0.523913 3.95618C0.507663 3.91697 0.499298 3.87494 0.499298 3.8325C0.499298 3.79006 0.507663 3.74803 0.523913 3.70883C0.540164 3.66962 0.563983 3.634 0.594007 3.604C2.6316 1.65318 5.34361 0.564234 8.16451 0.564234C10.9854 0.564234 13.6974 1.65318 15.735 3.604C15.765 3.634 15.7889 3.66962 15.8051 3.70883C15.8214 3.74803 15.8297 3.79006 15.8297 3.8325C15.8297 3.87494 15.8214 3.91697 15.8051 3.95618C15.7889 3.99538 15.765 4.031 15.735 4.061L14.574 5.231C14.5163 5.28859 14.4381 5.32092 14.3565 5.32092C14.275 5.32092 14.1967 5.28859 14.139 5.231L14.144 5.226Z" fill="black"/>
</svg>
